<?xml version="1.0" encoding="UTF-8" standalone="no"?>
<!DOCTYPE svg PUBLIC "-//W3C//DTD SVG 1.1//EN"
 "http://www.w3.org/Graphics/SVG/1.1/DTD/svg11.dtd">
<!-- Generated by graphviz version 2.38.0 (20140413.2041)
 -->
<!-- Title: controllers_diagram Pages: 1 -->
<svg width="365pt" height="248pt"
 viewBox="0.00 0.00 365.50 247.50" xmlns="http://www.w3.org/2000/svg" xmlns:xlink="http://www.w3.org/1999/xlink">
<g id="graph0" class="graph" transform="scale(1 1) rotate(0) translate(67.5 131.5)">
<title>controllers_diagram</title>
<polygon fill="none" stroke="none" points="-67.5,116 -67.5,-131.5 298,-131.5 298,116 -67.5,116"/>
<!-- _diagram_info -->
<g id="node1" class="node"><title>_diagram_info</title>
<text text-anchor="start" x="88" y="16.4" font-family="Times,serif" font-size="13.00">Controllers diagram</text>
<text text-anchor="start" x="88" y="30.4" font-family="Times,serif" font-size="13.00">Date: Aug 09 2017 &#45; 19:45</text>
<text text-anchor="start" x="88" y="44.4" font-family="Times,serif" font-size="13.00">Migration version: 20170809233027</text>
<text text-anchor="start" x="88" y="58.4" font-family="Times,serif" font-size="13.00">Generated by RailRoady 1.5.3</text>
<text text-anchor="start" x="88" y="72.4" font-family="Times,serif" font-size="13.00">http://railroady.prestonlee.com</text>
</g>
<!-- SongsController -->
<g id="node2" class="node"><title>SongsController</title>
<path fill="none" stroke="black" d="M-51.5,111.5C-51.5,111.5 29.5,111.5 29.5,111.5 35.5,111.5 41.5,105.5 41.5,99.5 41.5,99.5 41.5,-89.5 41.5,-89.5 41.5,-95.5 35.5,-101.5 29.5,-101.5 29.5,-101.5 -51.5,-101.5 -51.5,-101.5 -57.5,-101.5 -63.5,-95.5 -63.5,-89.5 -63.5,-89.5 -63.5,99.5 -63.5,99.5 -63.5,105.5 -57.5,111.5 -51.5,111.5"/>
<text text-anchor="middle" x="-11" y="-86.3" font-family="Times,serif" font-size="14.00">SongsController</text>
<polyline fill="none" stroke="black" points="-63.5,-78.5 41.5,-78.5 "/>
<text text-anchor="start" x="-55.5" y="-63.3" font-family="Times,serif" font-size="14.00">create</text>
<text text-anchor="start" x="-55.5" y="-48.3" font-family="Times,serif" font-size="14.00">destroy</text>
<text text-anchor="start" x="-55.5" y="-33.3" font-family="Times,serif" font-size="14.00">edit</text>
<text text-anchor="start" x="-55.5" y="-18.3" font-family="Times,serif" font-size="14.00">index</text>
<text text-anchor="start" x="-55.5" y="-3.3" font-family="Times,serif" font-size="14.00">new</text>
<text text-anchor="start" x="-55.5" y="11.7" font-family="Times,serif" font-size="14.00">show</text>
<text text-anchor="start" x="-55.5" y="26.7" font-family="Times,serif" font-size="14.00">update</text>
<polyline fill="none" stroke="black" points="-63.5,34.5 41.5,34.5 "/>
<polyline fill="none" stroke="black" points="-63.5,58.5 41.5,58.5 "/>
<text text-anchor="start" x="-55.5" y="73.7" font-family="Times,serif" font-size="14.00">_layout</text>
<text text-anchor="start" x="-55.5" y="88.7" font-family="Times,serif" font-size="14.00">set_song</text>
<text text-anchor="start" x="-55.5" y="103.7" font-family="Times,serif" font-size="14.00">song_params</text>
</g>
<!-- ApplicationController -->
<g id="node3" class="node"><title>ApplicationController</title>
<path fill="none" stroke="black" d="M92,-33C92,-33 204,-33 204,-33 210,-33 216,-39 216,-45 216,-45 216,-115 216,-115 216,-121 210,-127 204,-127 204,-127 92,-127 92,-127 86,-127 80,-121 80,-115 80,-115 80,-45 80,-45 80,-39 86,-33 92,-33"/>
<text text-anchor="middle" x="148" y="-111.8" font-family="Times,serif" font-size="14.00">ApplicationController</text>
<polyline fill="none" stroke="black" points="80,-104 216,-104 "/>
<polyline fill="none" stroke="black" points="80,-80 216,-80 "/>
<polyline fill="none" stroke="black" points="80,-56 216,-56 "/>
<text text-anchor="start" x="88" y="-40.8" font-family="Times,serif" font-size="14.00">_layout</text>
</g>
</g>
</svg>
