<?xml version="1.0" encoding="UTF-8" standalone="no"?>
<!DOCTYPE svg PUBLIC "-//W3C//DTD SVG 1.1//EN"
 "http://www.w3.org/Graphics/SVG/1.1/DTD/svg11.dtd">
<!-- Generated by graphviz version 2.38.0 (20140413.2041)
 -->
<!-- Title: models_diagram Pages: 1 -->
<svg width="477pt" height="230pt"
 viewBox="0.00 0.00 477.34 230.00" xmlns="http://www.w3.org/2000/svg" xmlns:xlink="http://www.w3.org/1999/xlink">
<g id="graph0" class="graph" transform="scale(1 1) rotate(0) translate(4 226)">
<title>models_diagram</title>
<polygon fill="none" stroke="none" points="-4,4 -4,-226 473.343,-226 473.343,4 -4,4"/>
<!-- _diagram_info -->
<g id="node1" class="node"><title>_diagram_info</title>
<text text-anchor="start" x="8" y="-207.6" font-family="Times,serif" font-size="13.00">Models diagram</text>
<text text-anchor="start" x="8" y="-193.6" font-family="Times,serif" font-size="13.00">Date: Aug 09 2017 &#45; 19:45</text>
<text text-anchor="start" x="8" y="-179.6" font-family="Times,serif" font-size="13.00">Migration version: 20170809233027</text>
<text text-anchor="start" x="8" y="-165.6" font-family="Times,serif" font-size="13.00">Generated by RailRoady 1.5.3</text>
<text text-anchor="start" x="8" y="-151.6" font-family="Times,serif" font-size="13.00">http://railroady.prestonlee.com</text>
</g>
<!-- Song -->
<g id="node2" class="node"><title>Song</title>
<ellipse fill="none" stroke="black" cx="264" cy="-90" rx="28.6953" ry="18"/>
<text text-anchor="middle" x="264" y="-86.3" font-family="Times,serif" font-size="14.00">Song</text>
</g>
<!-- UserSong -->
<g id="node6" class="node"><title>UserSong</title>
<ellipse fill="none" stroke="black" cx="227" cy="-18" rx="45.4919" ry="18"/>
<text text-anchor="middle" x="227" y="-14.3" font-family="Times,serif" font-size="14.00">UserSong</text>
</g>
<!-- Song&#45;&gt;UserSong -->
<g id="edge1" class="edge"><title>Song&#45;&gt;UserSong</title>
<path fill="none" stroke="#5c36cb" d="M251.531,-65.4095C248.123,-58.9632 244.41,-51.9371 240.927,-45.3476"/>
<ellipse fill="none" stroke="#5c36cb" cx="253.549" cy="-69.2283" rx="4.00002" ry="4.00002"/>
<polygon fill="#5c36cb" stroke="#5c36cb" points="240.724,-44.9649 240.03,-34.021 238.388,-40.5444 236.051,-36.1239 236.051,-36.1239 236.051,-36.1239 238.388,-40.5444 232.073,-38.2268 240.724,-44.9649 240.724,-44.9649"/>
</g>
<!-- ApplicationRecord -->
<g id="node3" class="node"><title>ApplicationRecord</title>
<ellipse fill="none" stroke="black" cx="392" cy="-183" rx="77.1866" ry="18"/>
<text text-anchor="middle" x="392" y="-179.3" font-family="Times,serif" font-size="14.00">ApplicationRecord</text>
</g>
<!-- Genre -->
<g id="node4" class="node"><title>Genre</title>
<ellipse fill="none" stroke="black" cx="264" cy="-183" rx="32.4942" ry="18"/>
<text text-anchor="middle" x="264" y="-179.3" font-family="Times,serif" font-size="14.00">Genre</text>
</g>
<!-- Genre&#45;&gt;Song -->
<g id="edge2" class="edge"><title>Genre&#45;&gt;Song</title>
<path fill="none" stroke="#7d997a" d="M264,-156.729C264,-144.725 264,-130.362 264,-118.129"/>
<ellipse fill="none" stroke="#7d997a" cx="264" cy="-160.884" rx="4" ry="4"/>
<polygon fill="#7d997a" stroke="#7d997a" points="264,-118.04 268.5,-108.04 264,-113.04 264,-108.04 264,-108.04 264,-108.04 264,-113.04 259.5,-108.04 264,-118.04 264,-118.04"/>
</g>
<!-- User -->
<g id="node5" class="node"><title>User</title>
<ellipse fill="none" stroke="black" cx="190" cy="-90" rx="27.0966" ry="18"/>
<text text-anchor="middle" x="190" y="-86.3" font-family="Times,serif" font-size="14.00">User</text>
</g>
<!-- User&#45;&gt;UserSong -->
<g id="edge3" class="edge"><title>User&#45;&gt;UserSong</title>
<path fill="none" stroke="#4e5ed6" d="M202.469,-65.4095C205.877,-58.9632 209.59,-51.9371 213.073,-45.3476"/>
<ellipse fill="none" stroke="#4e5ed6" cx="200.451" cy="-69.2283" rx="4.00002" ry="4.00002"/>
<polygon fill="#4e5ed6" stroke="#4e5ed6" points="213.276,-44.9649 221.927,-38.2268 215.612,-40.5444 217.949,-36.1239 217.949,-36.1239 217.949,-36.1239 215.612,-40.5444 213.97,-34.021 213.276,-44.9649 213.276,-44.9649"/>
</g>
</g>
</svg>
