<?xml version="1.0" encoding="UTF-8" standalone="no"?>
<!DOCTYPE svg PUBLIC "-//W3C//DTD SVG 1.1//EN"
 "http://www.w3.org/Graphics/SVG/1.1/DTD/svg11.dtd">
<!-- Generated by graphviz version 2.38.0 (20140413.2041)
 -->
<!-- Title: models_diagram Pages: 1 -->
<svg width="756pt" height="476pt"
 viewBox="0.00 0.00 755.84 476.00" xmlns="http://www.w3.org/2000/svg" xmlns:xlink="http://www.w3.org/1999/xlink">
<g id="graph0" class="graph" transform="scale(1 1) rotate(0) translate(4 472)">
<title>models_diagram</title>
<polygon fill="none" stroke="none" points="-4,4 -4,-472 751.843,-472 751.843,4 -4,4"/>
<!-- _diagram_info -->
<g id="node1" class="node"><title>_diagram_info</title>
<text text-anchor="start" x="107.5" y="-446.6" font-family="Times,serif" font-size="13.00">Models diagram</text>
<text text-anchor="start" x="107.5" y="-432.6" font-family="Times,serif" font-size="13.00">Date: Aug 09 2017 &#45; 19:45</text>
<text text-anchor="start" x="107.5" y="-418.6" font-family="Times,serif" font-size="13.00">Migration version: 20170809233027</text>
<text text-anchor="start" x="107.5" y="-404.6" font-family="Times,serif" font-size="13.00">Generated by RailRoady 1.5.3</text>
<text text-anchor="start" x="107.5" y="-390.6" font-family="Times,serif" font-size="13.00">http://railroady.prestonlee.com</text>
</g>
<!-- Song -->
<g id="node2" class="node"><title>Song</title>
<path fill="none" stroke="black" d="M343.5,-166C343.5,-166 563.5,-166 563.5,-166 569.5,-166 575.5,-172 575.5,-178 575.5,-178 575.5,-275 575.5,-275 575.5,-281 569.5,-287 563.5,-287 563.5,-287 343.5,-287 343.5,-287 337.5,-287 331.5,-281 331.5,-275 331.5,-275 331.5,-178 331.5,-178 331.5,-172 337.5,-166 343.5,-166"/>
<text text-anchor="middle" x="453.5" y="-271.8" font-family="Times,serif" font-size="14.00">Song</text>
<polyline fill="none" stroke="black" points="331.5,-264 575.5,-264 "/>
<text text-anchor="start" x="339.5" y="-248.8" font-family="Times,serif" font-size="14.00">id :bigint</text>
<text text-anchor="start" x="339.5" y="-233.8" font-family="Times,serif" font-size="14.00">name :character varying</text>
<text text-anchor="start" x="339.5" y="-218.8" font-family="Times,serif" font-size="14.00">duration :character varying</text>
<text text-anchor="start" x="339.5" y="-203.8" font-family="Times,serif" font-size="14.00">genres_id :bigint</text>
<text text-anchor="start" x="339.5" y="-188.8" font-family="Times,serif" font-size="14.00">created_at :timestamp without time zone</text>
<text text-anchor="start" x="339.5" y="-173.8" font-family="Times,serif" font-size="14.00">updated_at :timestamp without time zone</text>
</g>
<!-- UserSong -->
<g id="node6" class="node"><title>UserSong</title>
<path fill="none" stroke="black" d="M194.5,-0.5C194.5,-0.5 414.5,-0.5 414.5,-0.5 420.5,-0.5 426.5,-6.5 426.5,-12.5 426.5,-12.5 426.5,-64.5 426.5,-64.5 426.5,-70.5 420.5,-76.5 414.5,-76.5 414.5,-76.5 194.5,-76.5 194.5,-76.5 188.5,-76.5 182.5,-70.5 182.5,-64.5 182.5,-64.5 182.5,-12.5 182.5,-12.5 182.5,-6.5 188.5,-0.5 194.5,-0.5"/>
<text text-anchor="middle" x="304.5" y="-61.3" font-family="Times,serif" font-size="14.00">UserSong</text>
<polyline fill="none" stroke="black" points="182.5,-53.5 426.5,-53.5 "/>
<text text-anchor="start" x="190.5" y="-38.3" font-family="Times,serif" font-size="14.00">id :bigint</text>
<text text-anchor="start" x="190.5" y="-23.3" font-family="Times,serif" font-size="14.00">created_at :timestamp without time zone</text>
<text text-anchor="start" x="190.5" y="-8.3" font-family="Times,serif" font-size="14.00">updated_at :timestamp without time zone</text>
</g>
<!-- Song&#45;&gt;UserSong -->
<g id="edge1" class="edge"><title>Song&#45;&gt;UserSong</title>
<path fill="none" stroke="#d364a5" d="M400.728,-159.624C380.845,-134.804 358.7,-107.159 340.67,-84.6522"/>
<ellipse fill="none" stroke="#d364a5" cx="403.24" cy="-162.759" rx="4.00002" ry="4.00002"/>
<polygon fill="#d364a5" stroke="#d364a5" points="340.478,-84.4121 337.738,-73.794 337.352,-80.5098 334.226,-76.6075 334.226,-76.6075 334.226,-76.6075 337.352,-80.5098 330.714,-79.4209 340.478,-84.4121 340.478,-84.4121"/>
</g>
<!-- ApplicationRecord -->
<g id="node3" class="node"><title>ApplicationRecord</title>
<ellipse fill="none" stroke="black" cx="670.5" cy="-422" rx="77.1866" ry="18"/>
<text text-anchor="middle" x="670.5" y="-418.3" font-family="Times,serif" font-size="14.00">ApplicationRecord</text>
</g>
<!-- Genre -->
<g id="node4" class="node"><title>Genre</title>
<path fill="none" stroke="black" d="M343.5,-376.5C343.5,-376.5 563.5,-376.5 563.5,-376.5 569.5,-376.5 575.5,-382.5 575.5,-388.5 575.5,-388.5 575.5,-455.5 575.5,-455.5 575.5,-461.5 569.5,-467.5 563.5,-467.5 563.5,-467.5 343.5,-467.5 343.5,-467.5 337.5,-467.5 331.5,-461.5 331.5,-455.5 331.5,-455.5 331.5,-388.5 331.5,-388.5 331.5,-382.5 337.5,-376.5 343.5,-376.5"/>
<text text-anchor="middle" x="453.5" y="-452.3" font-family="Times,serif" font-size="14.00">Genre</text>
<polyline fill="none" stroke="black" points="331.5,-444.5 575.5,-444.5 "/>
<text text-anchor="start" x="339.5" y="-429.3" font-family="Times,serif" font-size="14.00">id :bigint</text>
<text text-anchor="start" x="339.5" y="-414.3" font-family="Times,serif" font-size="14.00">name :character varying</text>
<text text-anchor="start" x="339.5" y="-399.3" font-family="Times,serif" font-size="14.00">created_at :timestamp without time zone</text>
<text text-anchor="start" x="339.5" y="-384.3" font-family="Times,serif" font-size="14.00">updated_at :timestamp without time zone</text>
</g>
<!-- Genre&#45;&gt;Song -->
<g id="edge2" class="edge"><title>Genre&#45;&gt;Song</title>
<path fill="none" stroke="#38d76b" d="M453.5,-367.845C453.5,-346.069 453.5,-320.568 453.5,-297.321"/>
<ellipse fill="none" stroke="#38d76b" cx="453.5" cy="-372.121" rx="4" ry="4"/>
<polygon fill="#38d76b" stroke="#38d76b" points="453.5,-297.168 458,-287.168 453.5,-292.168 453.5,-287.168 453.5,-287.168 453.5,-287.168 453.5,-292.168 449,-287.168 453.5,-297.168 453.5,-297.168"/>
</g>
<!-- User -->
<g id="node5" class="node"><title>User</title>
<path fill="none" stroke="black" d="M12,-113.5C12,-113.5 301,-113.5 301,-113.5 307,-113.5 313,-119.5 313,-125.5 313,-125.5 313,-327.5 313,-327.5 313,-333.5 307,-339.5 301,-339.5 301,-339.5 12,-339.5 12,-339.5 6,-339.5 0,-333.5 0,-327.5 0,-327.5 0,-125.5 0,-125.5 0,-119.5 6,-113.5 12,-113.5"/>
<text text-anchor="middle" x="156.5" y="-324.3" font-family="Times,serif" font-size="14.00">User</text>
<polyline fill="none" stroke="black" points="0,-316.5 313,-316.5 "/>
<text text-anchor="start" x="8" y="-301.3" font-family="Times,serif" font-size="14.00">id :bigint</text>
<text text-anchor="start" x="8" y="-286.3" font-family="Times,serif" font-size="14.00">email :character varying</text>
<text text-anchor="start" x="8" y="-271.3" font-family="Times,serif" font-size="14.00">encrypted_password :character varying</text>
<text text-anchor="start" x="8" y="-256.3" font-family="Times,serif" font-size="14.00">reset_password_token :character varying</text>
<text text-anchor="start" x="8" y="-241.3" font-family="Times,serif" font-size="14.00">reset_password_sent_at :timestamp without time zone</text>
<text text-anchor="start" x="8" y="-226.3" font-family="Times,serif" font-size="14.00">remember_created_at :timestamp without time zone</text>
<text text-anchor="start" x="8" y="-211.3" font-family="Times,serif" font-size="14.00">sign_in_count :integer</text>
<text text-anchor="start" x="8" y="-196.3" font-family="Times,serif" font-size="14.00">current_sign_in_at :timestamp without time zone</text>
<text text-anchor="start" x="8" y="-181.3" font-family="Times,serif" font-size="14.00">last_sign_in_at :timestamp without time zone</text>
<text text-anchor="start" x="8" y="-166.3" font-family="Times,serif" font-size="14.00">current_sign_in_ip :inet</text>
<text text-anchor="start" x="8" y="-151.3" font-family="Times,serif" font-size="14.00">last_sign_in_ip :inet</text>
<text text-anchor="start" x="8" y="-136.3" font-family="Times,serif" font-size="14.00">created_at :timestamp without time zone</text>
<text text-anchor="start" x="8" y="-121.3" font-family="Times,serif" font-size="14.00">updated_at :timestamp without time zone</text>
</g>
<!-- User&#45;&gt;UserSong -->
<g id="edge3" class="edge"><title>User&#45;&gt;UserSong</title>
<path fill="none" stroke="#b41951" d="M250.864,-106.907C257.003,-99.1923 262.939,-91.7322 268.484,-84.7629"/>
<ellipse fill="none" stroke="#b41951" cx="248.284" cy="-110.149" rx="4.00002" ry="4.00002"/>
<polygon fill="#b41951" stroke="#b41951" points="268.577,-84.6461 278.325,-79.6229 271.69,-80.7336 274.804,-76.821 274.804,-76.821 274.804,-76.821 271.69,-80.7336 271.282,-74.0191 268.577,-84.6461 268.577,-84.6461"/>
</g>
</g>
</svg>
